<svg width="60" height="62" viewBox="0 0 60 62" fill="none" xmlns="http://www.w3.org/2000/svg">
<g filter="url(#filter0_dd_1_277)">
<rect x="5" y="3" width="49.4628" height="49.4628" rx="24.7314" fill="#374151"/>
</g>
<path d="M38.1746 24.7136C38.1351 23.8599 37.9979 23.2769 37.7974 22.7668C37.5938 22.2316 37.2745 21.7469 36.8618 21.3462C36.4567 20.9382 35.9663 20.6223 35.425 20.4209C34.909 20.2227 34.3195 20.0873 33.456 20.0485C32.591 20.0093 32.3146 20 30.1117 20C27.9087 20 27.6323 20.0093 26.7673 20.0482C25.9038 20.0873 25.3143 20.2229 24.7983 20.4211C24.257 20.6224 23.7668 20.9382 23.3615 21.3462C22.9489 21.7467 22.6294 22.2315 22.4257 22.7667C22.2253 23.2769 22.0883 23.8599 22.049 24.7135C22.0094 25.5689 22 25.8421 22 28.0202C22 30.1985 22.0094 30.4717 22.049 31.327C22.0884 32.1806 22.2255 32.7637 22.426 33.2739C22.6296 33.8089 22.949 34.2938 23.3616 34.6943C23.7668 35.1024 24.2571 35.4181 24.7984 35.6194C25.3143 35.8178 25.904 35.9533 26.7674 35.9923C27.6326 36.0313 27.9089 36.0405 30.1118 36.0405C32.3147 36.0405 32.5911 36.0313 33.4562 35.9923C34.3196 35.9533 34.9092 35.8178 35.4252 35.6194C36.5147 35.2028 37.3761 34.3512 37.7974 33.2739C37.9981 32.7637 38.1351 32.1806 38.1746 31.327C38.2139 30.4716 38.2233 30.1985 38.2233 28.0203C38.2233 25.8421 38.2139 25.5689 38.1746 24.7136ZM36.7144 31.2613C36.6784 32.0433 36.5462 32.468 36.4352 32.7506C36.1622 33.4501 35.6032 34.0029 34.8957 34.2727C34.6099 34.3825 34.1804 34.5132 33.3895 34.5488C32.5343 34.5875 32.2777 34.5956 30.1117 34.5956C27.9455 34.5956 27.689 34.5875 26.8338 34.5488C26.043 34.5132 25.6135 34.3825 25.3275 34.2727C24.9753 34.1441 24.6566 33.9391 24.3949 33.6727C24.1254 33.414 23.9181 33.099 23.788 32.7506C23.677 32.468 23.5448 32.0433 23.5088 31.2613C23.4698 30.4157 23.4615 30.162 23.4615 28.0204C23.4615 25.8788 23.4698 25.6252 23.5088 24.7794C23.5449 23.9974 23.677 23.5728 23.788 23.2902C23.9181 22.9418 24.1256 22.6267 24.3949 22.3679C24.6566 22.1015 24.9753 21.8965 25.3277 21.768C25.6135 21.6581 26.043 21.5276 26.8339 21.4918C27.6892 21.4533 27.9457 21.4451 30.1117 21.4451H30.1115C32.2775 21.4451 32.534 21.4533 33.3895 21.4919C34.1804 21.5276 34.6097 21.6583 34.8957 21.768C35.2479 21.8967 35.5666 22.1016 35.8283 22.3679C36.0978 22.6267 36.3051 22.9418 36.435 23.2902C36.5462 23.5728 36.6784 23.9974 36.7144 24.7794C36.7534 25.6251 36.7617 25.8788 36.7617 28.0203C36.7617 30.162 36.7535 30.4156 36.7144 31.2613Z" fill="url(#paint0_linear_1_277)"/>
<path d="M30.1115 23.9016C27.8111 23.9016 25.9462 25.7457 25.9462 28.0203C25.9462 30.295 27.8111 32.1389 30.1115 32.1389C32.4121 32.1389 34.277 30.295 34.277 28.0203C34.277 25.7457 32.4121 23.9016 30.1115 23.9016ZM30.1115 30.6938C28.6183 30.6937 27.4077 29.4968 27.4078 28.0202C27.4078 26.5438 28.6183 25.3467 30.1117 25.3467C31.605 25.3468 32.8155 26.5438 32.8155 28.0202C32.8155 29.4968 31.6049 30.6938 30.1115 30.6938Z" fill="url(#paint1_linear_1_277)"/>
<path d="M35.4152 23.7399C35.4152 24.272 34.9794 24.7034 34.4419 24.7034C33.9042 24.7034 33.4684 24.272 33.4684 23.7399C33.4684 23.2077 33.9042 22.7764 34.4419 22.7764C34.9794 22.7764 35.4152 23.2077 35.4152 23.7399Z" fill="url(#paint2_linear_1_277)"/>
<defs>
<filter id="filter0_dd_1_277" x="0" y="0" width="59.4628" height="61.4629" filterUnits="userSpaceOnUse" color-interpolation-filters="sRGB">
<feFlood flood-opacity="0" result="BackgroundImageFix"/>
<feColorMatrix in="SourceAlpha" type="matrix" values="0 0 0 0 0 0 0 0 0 0 0 0 0 0 0 0 0 0 127 0" result="hardAlpha"/>
<feMorphology radius="1" operator="erode" in="SourceAlpha" result="effect1_dropShadow_1_277"/>
<feOffset dy="4"/>
<feGaussianBlur stdDeviation="3"/>
<feColorMatrix type="matrix" values="0 0 0 0 0 0 0 0 0 0 0 0 0 0 0 0 0 0 0.1 0"/>
<feBlend mode="normal" in2="BackgroundImageFix" result="effect1_dropShadow_1_277"/>
<feColorMatrix in="SourceAlpha" type="matrix" values="0 0 0 0 0 0 0 0 0 0 0 0 0 0 0 0 0 0 127 0" result="hardAlpha"/>
<feOffset dy="2"/>
<feGaussianBlur stdDeviation="2.5"/>
<feColorMatrix type="matrix" values="0 0 0 0 0 0 0 0 0 0 0 0 0 0 0 0 0 0 0.06 0"/>
<feBlend mode="normal" in2="effect1_dropShadow_1_277" result="effect2_dropShadow_1_277"/>
<feBlend mode="normal" in="SourceGraphic" in2="effect2_dropShadow_1_277" result="shape"/>
</filter>
<linearGradient id="paint0_linear_1_277" x1="23.3614" y1="34.6944" x2="36.709" y2="21.1948" gradientUnits="userSpaceOnUse">
<stop stop-color="#FFD600"/>
<stop offset="0.5" stop-color="#FF0100"/>
<stop offset="1" stop-color="#D800B9"/>
</linearGradient>
<linearGradient id="paint1_linear_1_277" x1="27.1662" y1="30.9326" x2="32.9905" y2="25.0422" gradientUnits="userSpaceOnUse">
<stop stop-color="#FF6400"/>
<stop offset="0.5" stop-color="#FF0100"/>
<stop offset="1" stop-color="#FD0056"/>
</linearGradient>
<linearGradient id="paint2_linear_1_277" x1="33.7535" y1="24.4212" x2="35.116" y2="23.0447" gradientUnits="userSpaceOnUse">
<stop stop-color="#F30072"/>
<stop offset="1" stop-color="#E50097"/>
</linearGradient>
</defs>
</svg>
