<svg width="60" height="62" viewBox="0 0 60 62" fill="none" xmlns="http://www.w3.org/2000/svg">
<g filter="url(#filter0_dd_1_274)">
<rect x="5" y="3" width="49.4628" height="49.4628" rx="24.7314" fill="#374151"/>
</g>
<path d="M39.967 21.775C39.2245 22.076 38.4333 22.2756 37.6084 22.3725C38.457 21.9042 39.1047 21.1684 39.4092 20.2814C38.618 20.7174 37.7445 21.0253 36.8135 21.1972C36.0622 20.4579 34.9915 20 33.8234 20C31.5572 20 29.7327 21.7 29.7327 23.7842C29.7327 24.084 29.7601 24.3724 29.8275 24.6469C26.4244 24.4935 23.4131 22.986 21.3902 20.6897C21.037 21.256 20.8299 21.9042 20.8299 22.602C20.8299 23.9122 21.5599 25.0736 22.6481 25.746C21.9905 25.7345 21.3453 25.558 20.7987 25.2801C20.7987 25.2916 20.7987 25.3066 20.7987 25.3216C20.7987 27.16 22.2176 28.6871 24.0783 29.0389C23.7451 29.1231 23.3819 29.1634 23.005 29.1634C22.743 29.1634 22.4784 29.1496 22.2301 29.0988C22.7604 30.5971 24.2655 31.6985 26.055 31.7343C24.6623 32.7411 22.894 33.3478 20.9796 33.3478C20.6439 33.3478 20.322 33.334 20 33.2959C21.8133 34.3766 23.9622 34.9937 26.2796 34.9937C33.8122 34.9937 37.9304 29.2269 37.9304 24.2282C37.9304 24.061 37.9242 23.8995 37.9154 23.7392C38.7278 23.2063 39.4105 22.5408 39.967 21.775Z" fill="#03A9F4"/>
<defs>
<filter id="filter0_dd_1_274" x="0" y="0" width="59.4628" height="61.4629" filterUnits="userSpaceOnUse" color-interpolation-filters="sRGB">
<feFlood flood-opacity="0" result="BackgroundImageFix"/>
<feColorMatrix in="SourceAlpha" type="matrix" values="0 0 0 0 0 0 0 0 0 0 0 0 0 0 0 0 0 0 127 0" result="hardAlpha"/>
<feMorphology radius="1" operator="erode" in="SourceAlpha" result="effect1_dropShadow_1_274"/>
<feOffset dy="4"/>
<feGaussianBlur stdDeviation="3"/>
<feColorMatrix type="matrix" values="0 0 0 0 0 0 0 0 0 0 0 0 0 0 0 0 0 0 0.1 0"/>
<feBlend mode="normal" in2="BackgroundImageFix" result="effect1_dropShadow_1_274"/>
<feColorMatrix in="SourceAlpha" type="matrix" values="0 0 0 0 0 0 0 0 0 0 0 0 0 0 0 0 0 0 127 0" result="hardAlpha"/>
<feOffset dy="2"/>
<feGaussianBlur stdDeviation="2.5"/>
<feColorMatrix type="matrix" values="0 0 0 0 0 0 0 0 0 0 0 0 0 0 0 0 0 0 0.06 0"/>
<feBlend mode="normal" in2="effect1_dropShadow_1_274" result="effect2_dropShadow_1_274"/>
<feBlend mode="normal" in="SourceGraphic" in2="effect2_dropShadow_1_274" result="shape"/>
</filter>
</defs>
</svg>
